<?xml version="1.0" encoding="UTF-8"?>
<svg id="_Слой_1" data-name="Слой 1" xmlns="http://www.w3.org/2000/svg" width="298.2" height="291" version="1.1" viewBox="0 0 298.2 291">
  <defs>
    <style>
      .cls-1 {
        fill: #000;
      }

      .cls-1, .cls-2 {
        stroke-width: 0px;
      }

      .cls-2 {
        fill: #fff;
      }
    </style>
  </defs>
  <g id="Group_688" data-name="Group 688">
    <rect id="Rectangle_2974" data-name="Rectangle 2974" class="cls-1" x="40.7" y="21.3" width="61.7" height="5" transform="translate(4.1 57.6) rotate(-45)"/>
    <path id="Rectangle_2966" data-name="Rectangle 2966" class="cls-1" d="M298.2,288.5h0c0,1.4-1.1,2.5-2.5,2.5H2.5c-1.4,0-2.5-1.1-2.5-2.5h0c0-1.4,1.1-2.5,2.5-2.5h293.2c1.4,0,2.5,1.1,2.5,2.5Z"/>
    <path id="Rectangle_2987" data-name="Rectangle 2987" class="cls-1" d="M50.5,0h0c1.4,0,2.5,1.1,2.5,2.5v284c0,1.4-1.1,2.5-2.5,2.5h0c-1.4,0-2.5-1.1-2.5-2.5V2.5c0-1.4,1.1-2.5,2.5-2.5Z"/>
    <path id="Rectangle_2988" data-name="Rectangle 2988" class="cls-1" d="M50.5,0h182c1.4,0,2.5,1.1,2.5,2.5h0c0,1.4-1.1,2.5-2.5,2.5H50.5c-1.4,0-2.5-1.1-2.5-2.5h0c0-1.4,1.1-2.5,2.5-2.5Z"/>
    <path id="Rectangle_2989" data-name="Rectangle 2989" class="cls-1" d="M232.5,1h0c1.4,0,2.5,1.1,2.5,2.5v44c0,1.4-1.1,2.5-2.5,2.5h0c-1.4,0-2.5-1.1-2.5-2.5V3.5c0-1.4,1.1-2.5,2.5-2.5Z"/>
  </g>
  <rect class="cls-2" x="200" y="5" width="74" height="64"/>
</svg>