<?xml version="1.0" encoding="UTF-8"?>
<!DOCTYPE svg PUBLIC "-//W3C//DTD SVG 1.1//EN" "http://www.w3.org/Graphics/SVG/1.1/DTD/svg11.dtd">
<svg xmlns="http://www.w3.org/2000/svg" version="1.1" width="311px" height="322px" style="shape-rendering:geometricPrecision; text-rendering:geometricPrecision; image-rendering:optimizeQuality; fill-rule:evenodd; clip-rule:evenodd" xmlns:xlink="http://www.w3.org/1999/xlink">
<g><path style="opacity:1" fill="#fefefe" d="M -0.5,-0.5 C 103.167,-0.5 206.833,-0.5 310.5,-0.5C 310.5,106.833 310.5,214.167 310.5,321.5C 206.833,321.5 103.167,321.5 -0.5,321.5C -0.5,314.5 -0.5,307.5 -0.5,300.5C 97.5006,300.667 195.501,300.5 293.5,300C 295.592,299.047 295.925,297.714 294.5,296C 213.167,295.5 131.834,295.333 50.5,295.5C 50.3333,215.166 50.5,134.833 51,54.5C 64.1667,41.3333 77.3333,28.1667 90.5,15C 137.837,14.6547 185.17,14.1547 232.5,13.5C 232.67,12.1779 232.337,11.0113 231.5,10C 169.596,9.16903 107.763,9.3357 46,10.5C 45.5,105.499 45.3333,200.499 45.5,295.5C 30.1667,295.5 14.8333,295.5 -0.5,295.5C -0.5,196.833 -0.5,98.1667 -0.5,-0.5 Z"/></g>
<g><path style="opacity:1" fill="#020202" d="M -0.5,300.5 C -0.5,298.833 -0.5,297.167 -0.5,295.5C 14.8333,295.5 30.1667,295.5 45.5,295.5C 45.3333,200.499 45.5,105.499 46,10.5C 107.763,9.3357 169.596,9.16903 231.5,10C 232.337,11.0113 232.67,12.1779 232.5,13.5C 185.17,14.1547 137.837,14.6547 90.5,15C 77.3333,28.1667 64.1667,41.3333 51,54.5C 50.5,134.833 50.3333,215.166 50.5,295.5C 131.834,295.333 213.167,295.5 294.5,296C 295.925,297.714 295.592,299.047 293.5,300C 195.501,300.5 97.5006,300.667 -0.5,300.5 Z"/></g>
<g><path style="opacity:1" fill="#fefefe" d="M 50.5,14.5 C 61.505,14.3335 72.505,14.5002 83.5,15C 72.6667,25.8333 61.8333,36.6667 51,47.5C 50.5002,36.505 50.3335,25.505 50.5,14.5 Z"/></g>
</svg>
